  0
SECTION
  2
HEADER
  9
$ACADVER
  1
AC1006
  9
$INSBASE
  10
0.000000
  20
0.000000
  30
0.000000
  9
$EXTMIN
  10
0.000000
  20
0.000000
  9
$EXTMAX
  10
1000.000000
  20
1000.000000
  0
ENDSEC
  0
SECTION
  2
BLOCKS
  0
BLOCK
  8
0
  2
Pattern2D_166887_M
  70
64
  10
0
  20
0
  0
TEXT
  8
1
  10
-92.587334
  20
1495.123047
  50
0.000000
  51
0.000000
  71
0.000000
  1
PIECE NAME: Pattern2D_166887
  7
STANDARD
  0
TEXT
  8
1
  10
-92.587334
  20
1490.123047
  50
0.000000
  51
0.000000
  71
0.000000
  1
SIZE: M
  7
STANDARD
  0
TEXT
  8
1
  10
-92.587334
  20
1480.123047
  50
0.000000
  51
0.000000
  71
0.000000
  1
QUANTITY: 1
  7
STANDARD
  0
TEXT
  8
1
  10
-92.587334
  20
1480.123047
  40
0.250000
  50
0.000000
  1
ROTATION: 0
  7
STANDARD
  0
POLYLINE
  8
1
  66
1
  70
1
  250
2
  0
VERTEX
  8
1
  10
0.000000
  20
1698.159302
  0
VERTEX
  8
1
  10
-51.990097
  20
1698.003662
  0
VERTEX
  8
1
  10
-60.559807
  20
1643.371704
  0
VERTEX
  8
1
  10
-68.079674
  20
1698.159302
  0
VERTEX
  8
1
  10
-86.406792
  20
1697.669678
  0
VERTEX
  8
1
  10
-93.862053
  20
1641.159302
  0
VERTEX
  8
1
  10
-93.862053
  20
1698.159302
  0
VERTEX
  8
1
  10
-152.946671
  20
1706.753418
  0
VERTEX
  8
1
  10
-153.058990
  20
1706.576172
  0
VERTEX
  8
1
  10
-153.385376
  20
1706.040527
  0
VERTEX
  8
1
  10
-153.909988
  20
1705.140747
  0
VERTEX
  8
1
  10
-154.616943
  20
1703.870972
  0
VERTEX
  8
1
  10
-155.490387
  20
1702.225342
  0
VERTEX
  8
1
  10
-156.514496
  20
1700.198120
  0
VERTEX
  8
1
  10
-157.673370
  20
1697.783447
  0
VERTEX
  8
1
  10
-158.951172
  20
1694.975586
  0
VERTEX
  8
1
  10
-160.332062
  20
1691.768555
  0
VERTEX
  8
1
  10
-161.800140
  20
1688.156738
  0
VERTEX
  8
1
  10
-163.339600
  20
1684.134155
  0
VERTEX
  8
1
  10
-164.934555
  20
1679.695068
  0
VERTEX
  8
1
  10
-166.569153
  20
1674.833740
  0
VERTEX
  8
1
  10
-168.227509
  20
1669.544067
  0
VERTEX
  8
1
  10
-169.893829
  20
1663.820679
  0
VERTEX
  8
1
  10
-171.552185
  20
1657.657349
  0
VERTEX
  8
1
  10
-173.186798
  20
1651.048584
  0
VERTEX
  8
1
  10
-174.781738
  20
1643.988281
  0
VERTEX
  8
1
  10
-176.321182
  20
1636.470947
  0
VERTEX
  8
1
  10
-177.789276
  20
1628.490479
  0
VERTEX
  8
1
  10
-179.170166
  20
1620.041138
  0
VERTEX
  8
1
  10
-180.447968
  20
1611.117188
  0
VERTEX
  8
1
  10
-181.606842
  20
1601.712769
  0
VERTEX
  8
1
  10
-182.630951
  20
1591.822021
  0
VERTEX
  8
1
  10
-183.504395
  20
1581.439209
  0
VERTEX
  8
1
  10
-184.211365
  20
1570.558594
  0
VERTEX
  8
1
  10
-184.735962
  20
1559.174072
  0
VERTEX
  8
1
  10
-185.062347
  20
1547.280151
  0
VERTEX
  8
1
  10
-185.174667
  20
1534.870850
  0
VERTEX
  8
1
  10
-185.174667
  20
1534.870850
  0
VERTEX
  8
1
  10
-185.174667
  20
1283.492676
  0
VERTEX
  8
1
  10
0.000000
  20
1283.492676
  0
SEQEND
  0
POINT
  8
2
  10
0.000000
  20
1698.159302
  0
POINT
  8
2
  10
-51.990097
  20
1698.003662
  0
POINT
  8
2
  10
-60.559807
  20
1643.371704
  0
POINT
  8
2
  10
-68.079674
  20
1698.159302
  0
POINT
  8
2
  10
-86.406792
  20
1697.669678
  0
POINT
  8
2
  10
-93.862053
  20
1641.159302
  0
POINT
  8
2
  10
-93.862053
  20
1698.159302
  0
POINT
  8
2
  10
-152.946671
  20
1706.753418
  0
POINT
  8
2
  10
-185.174667
  20
1534.870850
  0
POINT
  8
2
  10
-185.174667
  20
1283.492676
  0
POINT
  8
2
  10
0.000000
  20
1283.492676
  0
POINT
  8
3
  10
-153.058990
  20
1706.576172
  0
POINT
  8
3
  10
-153.385376
  20
1706.040527
  0
POINT
  8
3
  10
-153.909988
  20
1705.140747
  0
POINT
  8
3
  10
-154.616943
  20
1703.870972
  0
POINT
  8
3
  10
-155.490387
  20
1702.225342
  0
POINT
  8
3
  10
-156.514496
  20
1700.198120
  0
POINT
  8
3
  10
-157.673370
  20
1697.783447
  0
POINT
  8
3
  10
-158.951172
  20
1694.975586
  0
POINT
  8
3
  10
-160.332062
  20
1691.768555
  0
POINT
  8
3
  10
-161.800140
  20
1688.156738
  0
POINT
  8
3
  10
-163.339600
  20
1684.134155
  0
POINT
  8
3
  10
-164.934555
  20
1679.695068
  0
POINT
  8
3
  10
-166.569153
  20
1674.833740
  0
POINT
  8
3
  10
-168.227509
  20
1669.544067
  0
POINT
  8
3
  10
-169.893829
  20
1663.820679
  0
POINT
  8
3
  10
-171.552185
  20
1657.657349
  0
POINT
  8
3
  10
-173.186798
  20
1651.048584
  0
POINT
  8
3
  10
-174.781738
  20
1643.988281
  0
POINT
  8
3
  10
-176.321182
  20
1636.470947
  0
POINT
  8
3
  10
-177.789276
  20
1628.490479
  0
POINT
  8
3
  10
-179.170166
  20
1620.041138
  0
POINT
  8
3
  10
-180.447968
  20
1611.117188
  0
POINT
  8
3
  10
-181.606842
  20
1601.712769
  0
POINT
  8
3
  10
-182.630951
  20
1591.822021
  0
POINT
  8
3
  10
-183.504395
  20
1581.439209
  0
POINT
  8
3
  10
-184.211365
  20
1570.558594
  0
POINT
  8
3
  10
-184.735962
  20
1559.174072
  0
POINT
  8
3
  10
-185.062347
  20
1547.280151
  0
POLYLINE
  8
84
  66
1
  70
1
  250
2
  0
VERTEX
  8
84
  10
0.000000
  20
1698.159302
  0
VERTEX
  8
84
  10
-51.990097
  20
1698.003662
  0
VERTEX
  8
84
  10
-60.559807
  20
1643.371704
  0
VERTEX
  8
84
  10
-68.079674
  20
1698.159302
  0
VERTEX
  8
84
  10
-86.406792
  20
1697.669678
  0
VERTEX
  8
84
  10
-93.862053
  20
1641.159302
  0
VERTEX
  8
84
  10
-93.862053
  20
1698.159302
  0
VERTEX
  8
84
  10
-152.946671
  20
1706.753418
  0
VERTEX
  8
84
  10
-152.946671
  20
1706.753418
  0
VERTEX
  8
84
  10
-185.174667
  20
1657.337158
  0
VERTEX
  8
84
  10
-185.174667
  20
1534.870850
  0
VERTEX
  8
84
  10
-185.174667
  20
1283.492676
  0
VERTEX
  8
84
  10
0.000000
  20
1283.492676
  0
SEQEND
  0
POINT
  8
2
  10
0.000000
  20
1698.159302
  0
POINT
  8
2
  10
-51.990097
  20
1698.003662
  0
POINT
  8
2
  10
-60.559807
  20
1643.371704
  0
POINT
  8
2
  10
-68.079674
  20
1698.159302
  0
POINT
  8
2
  10
-86.406792
  20
1697.669678
  0
POINT
  8
2
  10
-93.862053
  20
1641.159302
  0
POINT
  8
2
  10
-93.862053
  20
1698.159302
  0
POINT
  8
2
  10
-152.946671
  20
1706.753418
  0
POINT
  8
2
  10
-185.174667
  20
1534.870850
  0
POINT
  8
2
  10
-185.174667
  20
1283.492676
  0
POINT
  8
2
  10
0.000000
  20
1283.492676
  0
POINT
  8
3
  10
-153.058990
  20
1706.576172
  0
POINT
  8
3
  10
-153.385376
  20
1706.040527
  0
POINT
  8
3
  10
-153.909988
  20
1705.140747
  0
POINT
  8
3
  10
-154.616943
  20
1703.870972
  0
POINT
  8
3
  10
-155.490387
  20
1702.225342
  0
POINT
  8
3
  10
-156.514496
  20
1700.198120
  0
POINT
  8
3
  10
-157.673370
  20
1697.783447
  0
POINT
  8
3
  10
-158.951172
  20
1694.975586
  0
POINT
  8
3
  10
-160.332062
  20
1691.768555
  0
POINT
  8
3
  10
-161.800140
  20
1688.156738
  0
POINT
  8
3
  10
-163.339600
  20
1684.134155
  0
POINT
  8
3
  10
-164.934555
  20
1679.695068
  0
POINT
  8
3
  10
-166.569153
  20
1674.833740
  0
POINT
  8
3
  10
-168.227509
  20
1669.544067
  0
POINT
  8
3
  10
-169.893829
  20
1663.820679
  0
POINT
  8
3
  10
-171.552185
  20
1657.657349
  0
POINT
  8
3
  10
-173.186798
  20
1651.048584
  0
POINT
  8
3
  10
-174.781738
  20
1643.988281
  0
POINT
  8
3
  10
-176.321182
  20
1636.470947
  0
POINT
  8
3
  10
-177.789276
  20
1628.490479
  0
POINT
  8
3
  10
-179.170166
  20
1620.041138
  0
POINT
  8
3
  10
-180.447968
  20
1611.117188
  0
POINT
  8
3
  10
-181.606842
  20
1601.712769
  0
POINT
  8
3
  10
-182.630951
  20
1591.822021
  0
POINT
  8
3
  10
-183.504395
  20
1581.439209
  0
POINT
  8
3
  10
-184.211365
  20
1570.558594
  0
POINT
  8
3
  10
-184.735962
  20
1559.174072
  0
POINT
  8
3
  10
-185.062347
  20
1547.280151
  0
LINE
  8
7
  10
-92.587334
  20
1405.123047
  11
-92.587334
  21
1585.123047
  0
ENDBLK
  0
BLOCK
  8
0
  2
Pattern2D_261682_M
  70
64
  10
0
  20
0
  0
TEXT
  8
1
  10
-116.873840
  20
936.878845
  50
0.000000
  51
0.000000
  71
0.000000
  1
PIECE NAME: Pattern2D_261682
  7
STANDARD
  0
TEXT
  8
1
  10
-116.873840
  20
931.878845
  50
0.000000
  51
0.000000
  71
0.000000
  1
SIZE: M
  7
STANDARD
  0
TEXT
  8
1
  10
-116.873840
  20
921.878845
  50
0.000000
  51
0.000000
  71
0.000000
  1
QUANTITY: 1
  7
STANDARD
  0
TEXT
  8
1
  10
-116.873840
  20
921.878845
  40
0.250000
  50
0.000000
  1
ROTATION: 0
  7
STANDARD
  0
POLYLINE
  8
1
  66
1
  70
1
  250
2
  0
VERTEX
  8
1
  10
-19.418617
  20
1139.915039
  0
VERTEX
  8
1
  10
-87.498329
  20
1140.186523
  0
VERTEX
  8
1
  10
-87.486855
  20
1049.686523
  0
VERTEX
  8
1
  10
-99.199524
  20
1139.425537
  0
VERTEX
  8
1
  10
-120.071594
  20
1147.900635
  0
VERTEX
  8
1
  10
-133.362122
  20
1065.971680
  0
VERTEX
  8
1
  10
-142.111450
  20
1148.509277
  0
VERTEX
  8
1
  10
-192.349792
  20
1148.509277
  0
VERTEX
  8
1
  10
-192.426392
  20
1148.274170
  0
VERTEX
  8
1
  10
-192.648987
  20
1147.574585
  0
VERTEX
  8
1
  10
-193.006760
  20
1146.418945
  0
VERTEX
  8
1
  10
-193.488892
  20
1144.815552
  0
VERTEX
  8
1
  10
-194.084579
  20
1142.772827
  0
VERTEX
  8
1
  10
-194.783020
  20
1140.299316
  0
VERTEX
  8
1
  10
-195.573364
  20
1137.403320
  0
VERTEX
  8
1
  10
-196.444809
  20
1134.093262
  0
VERTEX
  8
1
  10
-197.386566
  20
1130.377563
  0
VERTEX
  8
1
  10
-198.387802
  20
1126.264648
  0
VERTEX
  8
1
  10
-199.437683
  20
1121.762939
  0
VERTEX
  8
1
  10
-200.525452
  20
1116.880859
  0
VERTEX
  8
1
  10
-201.640228
  20
1111.626831
  0
VERTEX
  8
1
  10
-202.771210
  20
1106.009155
  0
VERTEX
  8
1
  10
-203.907623
  20
1100.036377
  0
VERTEX
  8
1
  10
-205.038635
  20
1093.716797
  0
VERTEX
  8
1
  10
-206.153412
  20
1087.058960
  0
VERTEX
  8
1
  10
-207.241150
  20
1080.071167
  0
VERTEX
  8
1
  10
-208.291046
  20
1072.761841
  0
VERTEX
  8
1
  10
-209.292267
  20
1065.139404
  0
VERTEX
  8
1
  10
-210.234024
  20
1057.212280
  0
VERTEX
  8
1
  10
-211.105484
  20
1048.989014
  0
VERTEX
  8
1
  10
-211.895844
  20
1040.477783
  0
VERTEX
  8
1
  10
-212.594269
  20
1031.687012
  0
VERTEX
  8
1
  10
-213.189957
  20
1022.625366
  0
VERTEX
  8
1
  10
-213.672089
  20
1013.301025
  0
VERTEX
  8
1
  10
-214.029861
  20
1003.722534
  0
VERTEX
  8
1
  10
-214.252457
  20
993.898193
  0
VERTEX
  8
1
  10
-214.329071
  20
983.836487
  0
VERTEX
  8
1
  10
-214.329071
  20
983.836487
  0
VERTEX
  8
1
  10
-214.329071
  20
725.248413
  0
VERTEX
  8
1
  10
-19.418617
  20
725.248413
  0
SEQEND
  0
POINT
  8
2
  10
-19.418617
  20
1139.915039
  0
POINT
  8
2
  10
-87.498329
  20
1140.186523
  0
POINT
  8
2
  10
-87.486855
  20
1049.686523
  0
POINT
  8
2
  10
-99.199524
  20
1139.425537
  0
POINT
  8
2
  10
-120.071594
  20
1147.900635
  0
POINT
  8
2
  10
-133.362122
  20
1065.971680
  0
POINT
  8
2
  10
-142.111450
  20
1148.509277
  0
POINT
  8
2
  10
-192.349792
  20
1148.509277
  0
POINT
  8
2
  10
-214.329071
  20
983.836487
  0
POINT
  8
2
  10
-214.329071
  20
725.248413
  0
POINT
  8
2
  10
-19.418617
  20
725.248413
  0
POINT
  8
3
  10
-192.426392
  20
1148.274170
  0
POINT
  8
3
  10
-192.648987
  20
1147.574585
  0
POINT
  8
3
  10
-193.006760
  20
1146.418945
  0
POINT
  8
3
  10
-193.488892
  20
1144.815552
  0
POINT
  8
3
  10
-194.084579
  20
1142.772827
  0
POINT
  8
3
  10
-194.783020
  20
1140.299316
  0
POINT
  8
3
  10
-195.573364
  20
1137.403320
  0
POINT
  8
3
  10
-196.444809
  20
1134.093262
  0
POINT
  8
3
  10
-197.386566
  20
1130.377563
  0
POINT
  8
3
  10
-198.387802
  20
1126.264648
  0
POINT
  8
3
  10
-199.437683
  20
1121.762939
  0
POINT
  8
3
  10
-200.525452
  20
1116.880859
  0
POINT
  8
3
  10
-201.640228
  20
1111.626831
  0
POINT
  8
3
  10
-202.771210
  20
1106.009155
  0
POINT
  8
3
  10
-203.907623
  20
1100.036377
  0
POINT
  8
3
  10
-205.038635
  20
1093.716797
  0
POINT
  8
3
  10
-206.153412
  20
1087.058960
  0
POINT
  8
3
  10
-207.241150
  20
1080.071167
  0
POINT
  8
3
  10
-208.291046
  20
1072.761841
  0
POINT
  8
3
  10
-209.292267
  20
1065.139404
  0
POINT
  8
3
  10
-210.234024
  20
1057.212280
  0
POINT
  8
3
  10
-211.105484
  20
1048.989014
  0
POINT
  8
3
  10
-211.895844
  20
1040.477783
  0
POINT
  8
3
  10
-212.594269
  20
1031.687012
  0
POINT
  8
3
  10
-213.189957
  20
1022.625366
  0
POINT
  8
3
  10
-213.672089
  20
1013.301025
  0
POINT
  8
3
  10
-214.029861
  20
1003.722534
  0
POINT
  8
3
  10
-214.252457
  20
993.898193
  0
POLYLINE
  8
84
  66
1
  70
1
  250
2
  0
VERTEX
  8
84
  10
-19.418617
  20
1139.915039
  0
VERTEX
  8
84
  10
-87.498329
  20
1140.186523
  0
VERTEX
  8
84
  10
-87.486855
  20
1049.686523
  0
VERTEX
  8
84
  10
-99.199524
  20
1139.425537
  0
VERTEX
  8
84
  10
-120.071594
  20
1147.900635
  0
VERTEX
  8
84
  10
-133.362122
  20
1065.971680
  0
VERTEX
  8
84
  10
-142.111450
  20
1148.509277
  0
VERTEX
  8
84
  10
-192.349792
  20
1148.509277
  0
VERTEX
  8
84
  10
-192.349792
  20
1148.509277
  0
VERTEX
  8
84
  10
-214.329071
  20
1082.219971
  0
VERTEX
  8
84
  10
-214.329071
  20
983.836487
  0
VERTEX
  8
84
  10
-214.329071
  20
725.248413
  0
VERTEX
  8
84
  10
-19.418617
  20
725.248413
  0
SEQEND
  0
POINT
  8
2
  10
-19.418617
  20
1139.915039
  0
POINT
  8
2
  10
-87.498329
  20
1140.186523
  0
POINT
  8
2
  10
-87.486855
  20
1049.686523
  0
POINT
  8
2
  10
-99.199524
  20
1139.425537
  0
POINT
  8
2
  10
-120.071594
  20
1147.900635
  0
POINT
  8
2
  10
-133.362122
  20
1065.971680
  0
POINT
  8
2
  10
-142.111450
  20
1148.509277
  0
POINT
  8
2
  10
-192.349792
  20
1148.509277
  0
POINT
  8
2
  10
-214.329071
  20
983.836487
  0
POINT
  8
2
  10
-214.329071
  20
725.248413
  0
POINT
  8
2
  10
-19.418617
  20
725.248413
  0
POINT
  8
3
  10
-192.426392
  20
1148.274170
  0
POINT
  8
3
  10
-192.648987
  20
1147.574585
  0
POINT
  8
3
  10
-193.006760
  20
1146.418945
  0
POINT
  8
3
  10
-193.488892
  20
1144.815552
  0
POINT
  8
3
  10
-194.084579
  20
1142.772827
  0
POINT
  8
3
  10
-194.783020
  20
1140.299316
  0
POINT
  8
3
  10
-195.573364
  20
1137.403320
  0
POINT
  8
3
  10
-196.444809
  20
1134.093262
  0
POINT
  8
3
  10
-197.386566
  20
1130.377563
  0
POINT
  8
3
  10
-198.387802
  20
1126.264648
  0
POINT
  8
3
  10
-199.437683
  20
1121.762939
  0
POINT
  8
3
  10
-200.525452
  20
1116.880859
  0
POINT
  8
3
  10
-201.640228
  20
1111.626831
  0
POINT
  8
3
  10
-202.771210
  20
1106.009155
  0
POINT
  8
3
  10
-203.907623
  20
1100.036377
  0
POINT
  8
3
  10
-205.038635
  20
1093.716797
  0
POINT
  8
3
  10
-206.153412
  20
1087.058960
  0
POINT
  8
3
  10
-207.241150
  20
1080.071167
  0
POINT
  8
3
  10
-208.291046
  20
1072.761841
  0
POINT
  8
3
  10
-209.292267
  20
1065.139404
  0
POINT
  8
3
  10
-210.234024
  20
1057.212280
  0
POINT
  8
3
  10
-211.105484
  20
1048.989014
  0
POINT
  8
3
  10
-211.895844
  20
1040.477783
  0
POINT
  8
3
  10
-212.594269
  20
1031.687012
  0
POINT
  8
3
  10
-213.189957
  20
1022.625366
  0
POINT
  8
3
  10
-213.672089
  20
1013.301025
  0
POINT
  8
3
  10
-214.029861
  20
1003.722534
  0
POINT
  8
3
  10
-214.252457
  20
993.898193
  0
LINE
  8
7
  10
-116.873840
  20
846.878845
  11
-116.873840
  21
1026.878906
  0
POLYLINE
  8
8
  66
1
  70
0
  250
1
  0
VERTEX
  8
8
  10
-19.418617
  20
725.248413
  0
VERTEX
  8
8
  10
-19.418617
  20
1139.915039
  0
SEQEND
  0
POINT
  8
2
  10
-19.418617
  20
725.248413
  0
POINT
  8
2
  10
-19.418617
  20
1139.915039
  0
POLYLINE
  8
85
  66
1
  70
0
  250
1
  0
VERTEX
  8
85
  10
-19.418617
  20
725.248413
  0
VERTEX
  8
85
  10
-19.418617
  20
1139.915039
  0
SEQEND
  0
POINT
  8
2
  10
-19.418617
  20
725.248413
  0
POINT
  8
2
  10
-19.418617
  20
1139.915039
  0
ENDBLK
  0
BLOCK
  8
0
  2
Pattern2D_261683_M
  70
64
  10
0
  20
0
  0
TEXT
  8
1
  10
123.237602
  20
955.712280
  50
0.000000
  51
0.000000
  71
0.000000
  1
PIECE NAME: Pattern2D_261683
  7
STANDARD
  0
TEXT
  8
1
  10
123.237602
  20
950.712280
  50
0.000000
  51
0.000000
  71
0.000000
  1
SIZE: M
  7
STANDARD
  0
TEXT
  8
1
  10
123.237602
  20
940.712280
  50
0.000000
  51
0.000000
  71
0.000000
  1
QUANTITY: 1
  7
STANDARD
  0
TEXT
  8
1
  10
123.237602
  20
940.712280
  40
0.250000
  50
0.000000
  1
ROTATION: 0
  7
STANDARD
  0
POLYLINE
  8
1
  66
1
  70
1
  250
2
  0
VERTEX
  8
1
  10
25.782379
  20
1158.748535
  0
VERTEX
  8
1
  10
93.862091
  20
1159.020020
  0
VERTEX
  8
1
  10
93.850616
  20
1068.520020
  0
VERTEX
  8
1
  10
105.563286
  20
1158.258911
  0
VERTEX
  8
1
  10
126.435356
  20
1166.734009
  0
VERTEX
  8
1
  10
139.725891
  20
1084.805054
  0
VERTEX
  8
1
  10
148.475204
  20
1167.342651
  0
VERTEX
  8
1
  10
198.713547
  20
1167.342651
  0
VERTEX
  8
1
  10
198.790146
  20
1167.107544
  0
VERTEX
  8
1
  10
199.012756
  20
1166.407959
  0
VERTEX
  8
1
  10
199.370514
  20
1165.252319
  0
VERTEX
  8
1
  10
199.852661
  20
1163.648926
  0
VERTEX
  8
1
  10
200.448334
  20
1161.606201
  0
VERTEX
  8
1
  10
201.146790
  20
1159.132690
  0
VERTEX
  8
1
  10
201.937119
  20
1156.236694
  0
VERTEX
  8
1
  10
202.808563
  20
1152.926636
  0
VERTEX
  8
1
  10
203.750336
  20
1149.211060
  0
VERTEX
  8
1
  10
204.751556
  20
1145.098145
  0
VERTEX
  8
1
  10
205.801453
  20
1140.596436
  0
VERTEX
  8
1
  10
206.889206
  20
1135.714355
  0
VERTEX
  8
1
  10
208.003983
  20
1130.460205
  0
VERTEX
  8
1
  10
209.134979
  20
1124.842529
  0
VERTEX
  8
1
  10
210.271393
  20
1118.869751
  0
VERTEX
  8
1
  10
211.402390
  20
1112.550293
  0
VERTEX
  8
1
  10
212.517181
  20
1105.892334
  0
VERTEX
  8
1
  10
213.604919
  20
1098.904541
  0
VERTEX
  8
1
  10
214.654816
  20
1091.595215
  0
VERTEX
  8
1
  10
215.656036
  20
1083.972778
  0
VERTEX
  8
1
  10
216.597778
  20
1076.045776
  0
VERTEX
  8
1
  10
217.469238
  20
1067.822388
  0
VERTEX
  8
1
  10
218.259598
  20
1059.311157
  0
VERTEX
  8
1
  10
218.958023
  20
1050.520508
  0
VERTEX
  8
1
  10
219.553711
  20
1041.458862
  0
VERTEX
  8
1
  10
220.035858
  20
1032.134521
  0
VERTEX
  8
1
  10
220.393616
  20
1022.555969
  0
VERTEX
  8
1
  10
220.616211
  20
1012.731628
  0
VERTEX
  8
1
  10
220.692825
  20
1002.669922
  0
VERTEX
  8
1
  10
220.692825
  20
1002.669922
  0
VERTEX
  8
1
  10
220.692825
  20
744.081848
  0
VERTEX
  8
1
  10
25.782379
  20
744.081848
  0
SEQEND
  0
POINT
  8
2
  10
25.782379
  20
1158.748535
  0
POINT
  8
2
  10
93.862091
  20
1159.020020
  0
POINT
  8
2
  10
93.850616
  20
1068.520020
  0
POINT
  8
2
  10
105.563286
  20
1158.258911
  0
POINT
  8
2
  10
126.435356
  20
1166.734009
  0
POINT
  8
2
  10
139.725891
  20
1084.805054
  0
POINT
  8
2
  10
148.475204
  20
1167.342651
  0
POINT
  8
2
  10
198.713547
  20
1167.342651
  0
POINT
  8
2
  10
220.692825
  20
1002.669922
  0
POINT
  8
2
  10
220.692825
  20
744.081848
  0
POINT
  8
2
  10
25.782379
  20
744.081848
  0
POINT
  8
3
  10
198.790146
  20
1167.107544
  0
POINT
  8
3
  10
199.012756
  20
1166.407959
  0
POINT
  8
3
  10
199.370514
  20
1165.252319
  0
POINT
  8
3
  10
199.852661
  20
1163.648926
  0
POINT
  8
3
  10
200.448334
  20
1161.606201
  0
POINT
  8
3
  10
201.146790
  20
1159.132690
  0
POINT
  8
3
  10
201.937119
  20
1156.236694
  0
POINT
  8
3
  10
202.808563
  20
1152.926636
  0
POINT
  8
3
  10
203.750336
  20
1149.211060
  0
POINT
  8
3
  10
204.751556
  20
1145.098145
  0
POINT
  8
3
  10
205.801453
  20
1140.596436
  0
POINT
  8
3
  10
206.889206
  20
1135.714355
  0
POINT
  8
3
  10
208.003983
  20
1130.460205
  0
POINT
  8
3
  10
209.134979
  20
1124.842529
  0
POINT
  8
3
  10
210.271393
  20
1118.869751
  0
POINT
  8
3
  10
211.402390
  20
1112.550293
  0
POINT
  8
3
  10
212.517181
  20
1105.892334
  0
POINT
  8
3
  10
213.604919
  20
1098.904541
  0
POINT
  8
3
  10
214.654816
  20
1091.595215
  0
POINT
  8
3
  10
215.656036
  20
1083.972778
  0
POINT
  8
3
  10
216.597778
  20
1076.045776
  0
POINT
  8
3
  10
217.469238
  20
1067.822388
  0
POINT
  8
3
  10
218.259598
  20
1059.311157
  0
POINT
  8
3
  10
218.958023
  20
1050.520508
  0
POINT
  8
3
  10
219.553711
  20
1041.458862
  0
POINT
  8
3
  10
220.035858
  20
1032.134521
  0
POINT
  8
3
  10
220.393616
  20
1022.555969
  0
POINT
  8
3
  10
220.616211
  20
1012.731628
  0
POLYLINE
  8
84
  66
1
  70
1
  250
2
  0
VERTEX
  8
84
  10
25.782379
  20
1158.748535
  0
VERTEX
  8
84
  10
93.862091
  20
1159.020020
  0
VERTEX
  8
84
  10
93.850616
  20
1068.520020
  0
VERTEX
  8
84
  10
105.563286
  20
1158.258911
  0
VERTEX
  8
84
  10
126.435356
  20
1166.734009
  0
VERTEX
  8
84
  10
139.725891
  20
1084.805054
  0
VERTEX
  8
84
  10
148.475204
  20
1167.342651
  0
VERTEX
  8
84
  10
198.713547
  20
1167.342651
  0
VERTEX
  8
84
  10
198.713547
  20
1167.342651
  0
VERTEX
  8
84
  10
220.692825
  20
1101.053345
  0
VERTEX
  8
84
  10
220.692825
  20
1002.669922
  0
VERTEX
  8
84
  10
220.692825
  20
744.081848
  0
VERTEX
  8
84
  10
25.782379
  20
744.081848
  0
SEQEND
  0
POINT
  8
2
  10
25.782379
  20
1158.748535
  0
POINT
  8
2
  10
93.862091
  20
1159.020020
  0
POINT
  8
2
  10
93.850616
  20
1068.520020
  0
POINT
  8
2
  10
105.563286
  20
1158.258911
  0
POINT
  8
2
  10
126.435356
  20
1166.734009
  0
POINT
  8
2
  10
139.725891
  20
1084.805054
  0
POINT
  8
2
  10
148.475204
  20
1167.342651
  0
POINT
  8
2
  10
198.713547
  20
1167.342651
  0
POINT
  8
2
  10
220.692825
  20
1002.669922
  0
POINT
  8
2
  10
220.692825
  20
744.081848
  0
POINT
  8
2
  10
25.782379
  20
744.081848
  0
POINT
  8
3
  10
198.790146
  20
1167.107544
  0
POINT
  8
3
  10
199.012756
  20
1166.407959
  0
POINT
  8
3
  10
199.370514
  20
1165.252319
  0
POINT
  8
3
  10
199.852661
  20
1163.648926
  0
POINT
  8
3
  10
200.448334
  20
1161.606201
  0
POINT
  8
3
  10
201.146790
  20
1159.132690
  0
POINT
  8
3
  10
201.937119
  20
1156.236694
  0
POINT
  8
3
  10
202.808563
  20
1152.926636
  0
POINT
  8
3
  10
203.750336
  20
1149.211060
  0
POINT
  8
3
  10
204.751556
  20
1145.098145
  0
POINT
  8
3
  10
205.801453
  20
1140.596436
  0
POINT
  8
3
  10
206.889206
  20
1135.714355
  0
POINT
  8
3
  10
208.003983
  20
1130.460205
  0
POINT
  8
3
  10
209.134979
  20
1124.842529
  0
POINT
  8
3
  10
210.271393
  20
1118.869751
  0
POINT
  8
3
  10
211.402390
  20
1112.550293
  0
POINT
  8
3
  10
212.517181
  20
1105.892334
  0
POINT
  8
3
  10
213.604919
  20
1098.904541
  0
POINT
  8
3
  10
214.654816
  20
1091.595215
  0
POINT
  8
3
  10
215.656036
  20
1083.972778
  0
POINT
  8
3
  10
216.597778
  20
1076.045776
  0
POINT
  8
3
  10
217.469238
  20
1067.822388
  0
POINT
  8
3
  10
218.259598
  20
1059.311157
  0
POINT
  8
3
  10
218.958023
  20
1050.520508
  0
POINT
  8
3
  10
219.553711
  20
1041.458862
  0
POINT
  8
3
  10
220.035858
  20
1032.134521
  0
POINT
  8
3
  10
220.393616
  20
1022.555969
  0
POINT
  8
3
  10
220.616211
  20
1012.731628
  0
LINE
  8
7
  10
123.237602
  20
865.712280
  11
123.237602
  21
1045.712280
  0
POLYLINE
  8
8
  66
1
  70
0
  250
1
  0
VERTEX
  8
8
  10
25.782379
  20
744.081848
  0
VERTEX
  8
8
  10
25.782379
  20
1158.748535
  0
SEQEND
  0
POINT
  8
2
  10
25.782379
  20
744.081848
  0
POINT
  8
2
  10
25.782379
  20
1158.748535
  0
POLYLINE
  8
85
  66
1
  70
0
  250
1
  0
VERTEX
  8
85
  10
25.782379
  20
744.081848
  0
VERTEX
  8
85
  10
25.782379
  20
1158.748535
  0
SEQEND
  0
POINT
  8
2
  10
25.782379
  20
744.081848
  0
POINT
  8
2
  10
25.782379
  20
1158.748535
  0
ENDBLK
  0
BLOCK
  8
0
  2
Pattern2D_166888_M
  70
64
  10
0
  20
0
  0
TEXT
  8
1
  10
118.369713
  20
1495.123047
  50
0.000000
  51
0.000000
  71
0.000000
  1
PIECE NAME: Pattern2D_166888
  7
STANDARD
  0
TEXT
  8
1
  10
118.369713
  20
1490.123047
  50
0.000000
  51
0.000000
  71
0.000000
  1
SIZE: M
  7
STANDARD
  0
TEXT
  8
1
  10
118.369713
  20
1480.123047
  50
0.000000
  51
0.000000
  71
0.000000
  1
QUANTITY: 1
  7
STANDARD
  0
TEXT
  8
1
  10
118.369713
  20
1480.123047
  40
0.250000
  50
0.000000
  1
ROTATION: 0
  7
STANDARD
  0
POLYLINE
  8
1
  66
1
  70
1
  250
2
  0
VERTEX
  8
1
  10
25.782379
  20
1698.159424
  0
VERTEX
  8
1
  10
77.772476
  20
1698.003784
  0
VERTEX
  8
1
  10
86.342186
  20
1643.371826
  0
VERTEX
  8
1
  10
93.862053
  20
1698.159424
  0
VERTEX
  8
1
  10
112.189171
  20
1697.669800
  0
VERTEX
  8
1
  10
119.644432
  20
1641.159424
  0
VERTEX
  8
1
  10
119.644432
  20
1698.159424
  0
VERTEX
  8
1
  10
178.729050
  20
1706.753540
  0
VERTEX
  8
1
  10
178.841370
  20
1706.576294
  0
VERTEX
  8
1
  10
179.167755
  20
1706.040649
  0
VERTEX
  8
1
  10
179.692368
  20
1705.140869
  0
VERTEX
  8
1
  10
180.399323
  20
1703.871094
  0
VERTEX
  8
1
  10
181.272766
  20
1702.225464
  0
VERTEX
  8
1
  10
182.296875
  20
1700.198242
  0
VERTEX
  8
1
  10
183.455750
  20
1697.783569
  0
VERTEX
  8
1
  10
184.733551
  20
1694.975586
  0
VERTEX
  8
1
  10
186.114441
  20
1691.768677
  0
VERTEX
  8
1
  10
187.582520
  20
1688.156860
  0
VERTEX
  8
1
  10
189.121979
  20
1684.134277
  0
VERTEX
  8
1
  10
190.716934
  20
1679.695190
  0
VERTEX
  8
1
  10
192.351532
  20
1674.833862
  0
VERTEX
  8
1
  10
194.009888
  20
1669.544189
  0
VERTEX
  8
1
  10
195.676208
  20
1663.820801
  0
VERTEX
  8
1
  10
197.334564
  20
1657.657471
  0
VERTEX
  8
1
  10
198.969177
  20
1651.048706
  0
VERTEX
  8
1
  10
200.564117
  20
1643.988403
  0
VERTEX
  8
1
  10
202.103561
  20
1636.470947
  0
VERTEX
  8
1
  10
203.571655
  20
1628.490479
  0
VERTEX
  8
1
  10
204.952545
  20
1620.041260
  0
VERTEX
  8
1
  10
206.230347
  20
1611.117310
  0
VERTEX
  8
1
  10
207.389221
  20
1601.712891
  0
VERTEX
  8
1
  10
208.413330
  20
1591.822144
  0
VERTEX
  8
1
  10
209.286774
  20
1581.439331
  0
VERTEX
  8
1
  10
209.993744
  20
1570.558716
  0
VERTEX
  8
1
  10
210.518341
  20
1559.174194
  0
VERTEX
  8
1
  10
210.844727
  20
1547.280273
  0
VERTEX
  8
1
  10
210.957047
  20
1534.870972
  0
VERTEX
  8
1
  10
210.957047
  20
1534.870972
  0
VERTEX
  8
1
  10
210.957047
  20
1283.492676
  0
VERTEX
  8
1
  10
25.782379
  20
1283.492676
  0
SEQEND
  0
POINT
  8
2
  10
25.782379
  20
1698.159424
  0
POINT
  8
2
  10
77.772476
  20
1698.003784
  0
POINT
  8
2
  10
86.342186
  20
1643.371826
  0
POINT
  8
2
  10
93.862053
  20
1698.159424
  0
POINT
  8
2
  10
112.189171
  20
1697.669800
  0
POINT
  8
2
  10
119.644432
  20
1641.159424
  0
POINT
  8
2
  10
119.644432
  20
1698.159424
  0
POINT
  8
2
  10
178.729050
  20
1706.753540
  0
POINT
  8
2
  10
210.957047
  20
1534.870972
  0
POINT
  8
2
  10
210.957047
  20
1283.492676
  0
POINT
  8
2
  10
25.782379
  20
1283.492676
  0
POINT
  8
3
  10
178.841370
  20
1706.576294
  0
POINT
  8
3
  10
179.167755
  20
1706.040649
  0
POINT
  8
3
  10
179.692368
  20
1705.140869
  0
POINT
  8
3
  10
180.399323
  20
1703.871094
  0
POINT
  8
3
  10
181.272766
  20
1702.225464
  0
POINT
  8
3
  10
182.296875
  20
1700.198242
  0
POINT
  8
3
  10
183.455750
  20
1697.783569
  0
POINT
  8
3
  10
184.733551
  20
1694.975586
  0
POINT
  8
3
  10
186.114441
  20
1691.768677
  0
POINT
  8
3
  10
187.582520
  20
1688.156860
  0
POINT
  8
3
  10
189.121979
  20
1684.134277
  0
POINT
  8
3
  10
190.716934
  20
1679.695190
  0
POINT
  8
3
  10
192.351532
  20
1674.833862
  0
POINT
  8
3
  10
194.009888
  20
1669.544189
  0
POINT
  8
3
  10
195.676208
  20
1663.820801
  0
POINT
  8
3
  10
197.334564
  20
1657.657471
  0
POINT
  8
3
  10
198.969177
  20
1651.048706
  0
POINT
  8
3
  10
200.564117
  20
1643.988403
  0
POINT
  8
3
  10
202.103561
  20
1636.470947
  0
POINT
  8
3
  10
203.571655
  20
1628.490479
  0
POINT
  8
3
  10
204.952545
  20
1620.041260
  0
POINT
  8
3
  10
206.230347
  20
1611.117310
  0
POINT
  8
3
  10
207.389221
  20
1601.712891
  0
POINT
  8
3
  10
208.413330
  20
1591.822144
  0
POINT
  8
3
  10
209.286774
  20
1581.439331
  0
POINT
  8
3
  10
209.993744
  20
1570.558716
  0
POINT
  8
3
  10
210.518341
  20
1559.174194
  0
POINT
  8
3
  10
210.844727
  20
1547.280273
  0
POLYLINE
  8
84
  66
1
  70
1
  250
2
  0
VERTEX
  8
84
  10
25.782379
  20
1698.159424
  0
VERTEX
  8
84
  10
77.772476
  20
1698.003784
  0
VERTEX
  8
84
  10
86.342186
  20
1643.371826
  0
VERTEX
  8
84
  10
93.862053
  20
1698.159424
  0
VERTEX
  8
84
  10
112.189171
  20
1697.669800
  0
VERTEX
  8
84
  10
119.644432
  20
1641.159424
  0
VERTEX
  8
84
  10
119.644432
  20
1698.159424
  0
VERTEX
  8
84
  10
178.729050
  20
1706.753540
  0
VERTEX
  8
84
  10
178.729050
  20
1706.753540
  0
VERTEX
  8
84
  10
210.957047
  20
1657.337280
  0
VERTEX
  8
84
  10
210.957047
  20
1534.870972
  0
VERTEX
  8
84
  10
210.957047
  20
1283.492676
  0
VERTEX
  8
84
  10
25.782379
  20
1283.492676
  0
SEQEND
  0
POINT
  8
2
  10
25.782379
  20
1698.159424
  0
POINT
  8
2
  10
77.772476
  20
1698.003784
  0
POINT
  8
2
  10
86.342186
  20
1643.371826
  0
POINT
  8
2
  10
93.862053
  20
1698.159424
  0
POINT
  8
2
  10
112.189171
  20
1697.669800
  0
POINT
  8
2
  10
119.644432
  20
1641.159424
  0
POINT
  8
2
  10
119.644432
  20
1698.159424
  0
POINT
  8
2
  10
178.729050
  20
1706.753540
  0
POINT
  8
2
  10
210.957047
  20
1534.870972
  0
POINT
  8
2
  10
210.957047
  20
1283.492676
  0
POINT
  8
2
  10
25.782379
  20
1283.492676
  0
POINT
  8
3
  10
178.841370
  20
1706.576294
  0
POINT
  8
3
  10
179.167755
  20
1706.040649
  0
POINT
  8
3
  10
179.692368
  20
1705.140869
  0
POINT
  8
3
  10
180.399323
  20
1703.871094
  0
POINT
  8
3
  10
181.272766
  20
1702.225464
  0
POINT
  8
3
  10
182.296875
  20
1700.198242
  0
POINT
  8
3
  10
183.455750
  20
1697.783569
  0
POINT
  8
3
  10
184.733551
  20
1694.975586
  0
POINT
  8
3
  10
186.114441
  20
1691.768677
  0
POINT
  8
3
  10
187.582520
  20
1688.156860
  0
POINT
  8
3
  10
189.121979
  20
1684.134277
  0
POINT
  8
3
  10
190.716934
  20
1679.695190
  0
POINT
  8
3
  10
192.351532
  20
1674.833862
  0
POINT
  8
3
  10
194.009888
  20
1669.544189
  0
POINT
  8
3
  10
195.676208
  20
1663.820801
  0
POINT
  8
3
  10
197.334564
  20
1657.657471
  0
POINT
  8
3
  10
198.969177
  20
1651.048706
  0
POINT
  8
3
  10
200.564117
  20
1643.988403
  0
POINT
  8
3
  10
202.103561
  20
1636.470947
  0
POINT
  8
3
  10
203.571655
  20
1628.490479
  0
POINT
  8
3
  10
204.952545
  20
1620.041260
  0
POINT
  8
3
  10
206.230347
  20
1611.117310
  0
POINT
  8
3
  10
207.389221
  20
1601.712891
  0
POINT
  8
3
  10
208.413330
  20
1591.822144
  0
POINT
  8
3
  10
209.286774
  20
1581.439331
  0
POINT
  8
3
  10
209.993744
  20
1570.558716
  0
POINT
  8
3
  10
210.518341
  20
1559.174194
  0
POINT
  8
3
  10
210.844727
  20
1547.280273
  0
LINE
  8
7
  10
118.369713
  20
1405.123047
  11
118.369713
  21
1585.123047
  0
ENDBLK
  0
ENDSEC
  0
SECTION
  2
ENTITIES
  0
INSERT
  8
1
  2
Pattern2D_166887_M
  10
0.000000
  20
0.000000
  0
INSERT
  8
1
  2
Pattern2D_261682_M
  10
0.000000
  20
0.000000
  0
INSERT
  8
1
  2
Pattern2D_261683_M
  10
0.000000
  20
0.000000
  0
INSERT
  8
1
  2
Pattern2D_166888_M
  10
0.000000
  20
0.000000
  0
TEXT
  8
1
  10
0.000000
  20
0.000000
  40
0.250000
  50
0.000000
  1
STYLE NAME: Skirt from traditional block 1
  7
STANDARD
  0
TEXT
  8
1
  10
0.000000
  20
0.000000
  40
0.250000
  50
0.000000
  1
CREATION DATE: 14-12-2021
  7
STANDARD
  0
TEXT
  8
1
  10
0.000000
  20
0.000000
  40
0.250000
  50
0.000000
  1
CREATION TIME: 17:53
  7
STANDARD
  0
TEXT
  8
1
  10
0.000000
  20
0.000000
  40
0.250000
  50
0.000000
  1
AUTHOR: CLO Virtual Fashion Inc.
  7
STANDARD
  0
TEXT
  8
1
  10
0.000000
  20
0.000000
  40
0.250000
  50
0.000000
  1
PRODUCT: CLO Standalone OnlineAuth 6.2.218
  7
STANDARD
  0
TEXT
  8
1
  10
0.000000
  20
0.000000
  40
0.250000
  50
0.000000
  1
VERSION: 3
  7
STANDARD
  0
TEXT
  8
1
  10
0.000000
  20
0.000000
  40
0.250000
  50
0.000000
  1
SAMPLE SIZE: M
  7
STANDARD
  0
TEXT
  8
1
  10
0.000000
  20
0.000000
  40
0.250000
  50
0.000000
  1
UNITS: METRIC
  7
STANDARD
  0
ENDSEC
  0
EOF
